<svg xmlns="http://www.w3.org/2000/svg" width="32" height="30" viewBox="0 0 32 30" fill="none">
  <path d="M25.3223 0.841797C25.4748 0.841669 25.6252 0.87773 25.7611 0.947017C25.897 1.0163 26.0145 1.11684 26.104 1.24037L26.1735 1.35223L31.3253 11.0118L31.3806 11.1429L31.3947 11.1918L31.4166 11.2908L31.4295 11.4039L31.4269 11.5325L31.4295 11.4489C31.4281 11.5795 31.402 11.7087 31.3523 11.8295L31.3137 11.9067L31.2623 11.9915L31.1955 12.0802L16.771 28.7482C16.6475 28.9132 16.4731 29.0329 16.2747 29.0889L16.2002 29.1069L16.0755 29.1249L15.9996 29.1275L15.871 29.1185L15.7605 29.0979L15.628 29.0542L15.5946 29.0388C15.4755 28.9859 15.3694 28.9078 15.2835 28.8099L0.792172 12.0622L0.712458 11.9504L0.650743 11.8308L0.605743 11.7022L0.576172 11.5351V11.3705L0.595458 11.2432L0.608315 11.1918L0.650743 11.0697L0.686743 10.9964L5.8296 1.35351C5.90128 1.21911 6.00378 1.10359 6.12871 1.01644C6.25363 0.929278 6.39743 0.872956 6.54832 0.852083L6.67817 0.841797H25.3223ZM21.0229 12.4132H10.975L16.0022 25.4761L21.0229 12.4132ZM8.91146 12.4132H3.64389L13.1235 23.3649L8.91146 12.4132ZM28.354 12.4132H23.0916L18.8835 23.3559L28.354 12.4132ZM10.8889 2.76908H7.25674L3.14246 10.4847H8.83046L10.8889 2.76908ZM19.1175 2.76908H12.8843L10.8272 10.4847H21.1733L19.1175 2.76908ZM24.7437 2.76908H21.1116L23.17 10.4847H28.8567L24.7437 2.76908Z" fill="currentColor"/>
</svg>